<?xml version="1.0" standalone="no"?><!DOCTYPE svg PUBLIC "-//W3C//DTD SVG 1.1//EN" "http://www.w3.org/Graphics/SVG/1.1/DTD/svg11.dtd"><svg class="icon" width="200px" height="200.00px" viewBox="0 0 1024 1024" version="1.1" xmlns="http://www.w3.org/2000/svg"><path d="M778.033006 65.444525c2.612501 2.215458 5.634324 4.095271 7.763824 6.704702 8.149611 9.980305 3.154853 22.881127-10.894118 27.696806-23.820522 8.163937-47.747467 16.020882-71.623247 24.025183-2.694365 0.903579-5.347798 1.930979-8.860808 3.204995 5.932106 11.879562 11.553127 23.137976 17.563004 35.175127 16.007579-7.990998 30.995945-16.072047 46.518476-22.948665 6.91755-3.064802 14.865569-4.928243 22.422685-5.204535 19.379373-0.708128 38.806841-0.49835 58.204633-0.124843 14.680351 0.282433 23.043832 12.873192 16.902972 24.783453-3.801583 7.372921-10.635221 9.318226-18.260899 9.340739-18.246573 0.054235-36.498262-0.207731-54.736649 0.178055-4.879124 0.103354-9.718339 2.076288-16.786315 3.698229 12.4608 6.560416 22.929222 11.167341 32.460296 17.245779 42.532699 27.122731 75.008344 62.551638 89.750093 111.976304 1.969864 6.605442 3.179412 13.577227 3.687996 20.456914 2.75781 37.294394-14.918781 60.474326-54.986335 71.998801-35.700083 10.268878-71.915913 11.168364-108.413152 4.983501-4.208858-0.713244-8.407484-1.485841-13.855566-2.451842 3.700275 9.393951 7.220449 17.511839 10.120498 25.845645 8.736988 25.104771 11.326976 50.836829 6.16235 77.007885-7.912204 40.09109-31.599695 62.442144-73.703629 66.412572-19.34458 1.824555-39.131229-0.99363-58.713216-1.809205-2.772136-0.115634-5.520737-0.811482-10.432607-1.571798 21.98471 29.236881 27.681456 60.553121 22.959921 96.036263-20.23895-4.052293-40.170908-7.271614-59.703777-12.101619-55.749722-13.783934-107.223047-36.793998-152.176888-73.15309-27.258831-22.048155-50.353828-47.76998-68.553329-77.849042-2.415003-3.991917-1.991354-6.392594 0.895393-9.768481 26.420743-30.890544 59.678194-38.946011 98.057293-29.335119 10.848069 2.716878 21.389146 6.658653 32.889061 10.29753-16.468067-49.946552-9.613962-96.078219 25.445532-134.829801 37.236066-41.157375 84.007299-40.845267 132.821051-23.307845-4.202719-54.66911 12.96222-98.896404 60.502979-130.129756-6.415107-12.906961-12.939707-26.043143-19.47454-39.174208-1.677199-3.369747-3.403516-6.713912-5.075599-10.084683-7.30129-14.712073-3.412726-24.315802 12.244882-29.581736 29.906124-10.057053 59.868529-19.949354 89.784886-29.975708 2.963495-0.99363 5.777587-2.434445 8.661264-3.667529C771.07964 65.444525 774.556834 65.444525 778.033006 65.444525zM844.326874 287.562345c0.988514-36.418444-31.812543-80.548524-74.302263-84.179214-40.763402-3.483334-69.90307 27.421536-61.610196 67.345828 7.665587 36.903491 41.261753 63.676252 83.333964 66.407456C824.786843 339.281263 844.608284 320.591599 844.326874 287.562345z" fill="#F6A623" /><path d="M232.188176 65.444525c70.13843 18.070564 128.308271 57.574277 183.007057 102.95279 34.221406 28.389584 64.704674 60.415998 90.133833 98.646718-22.471804 7.413853-42.084491 18.504446-57.364499 37.815257-3.872191-4.336772-7.316639-8.057513-10.611685-11.905144-36.417421-42.526559-74.765821-83.117023-119.290897-117.366058-21.177322-16.290011-43.317575-31.141254-69.523423-38.32384-6.362918-1.743714-13.053294-2.838651-19.638269-3.108804-11.30651-0.463558-17.198707 4.439102-19.465331 15.640212-3.845585 19.006889 0.076748 37.591153 4.687766 55.79577 22.329565 88.150666 85.796038 145.125285 176.200024 158.851914 5.056156 0.76748 10.106172 1.570775 13.969153 2.171456-2.241041 20.634969-4.379751 40.334637-6.715959 61.845557-15.968693-3.656273-32.897248-6.801916-49.406247-11.44261-60.728106-17.067724-112.956631-48.033993-151.865803-98.378611-43.791365-56.662511-64.908312-120.347972-53.477982-192.531991 5.712095-36.072567 23.284309-53.081962 59.214636-59.32106 1.39272-0.2415 2.715855-0.886183 4.071735-1.342578C214.805274 65.444525 223.496214 65.444525 232.188176 65.444525z" fill="#F6A623" /><path d="M411.239132 955.484533c-14.908548-11.715833-32.982182-21.036106-44.048215-35.659151-21.306258-28.155247-48.215118-52.391231-62.665225-85.619006-12.190647-28.033473-20.298302-57.093323-24.028253-89.953731 65.647139 65.027016 144.398738 96.723925 234.821143 105.435331-28.643364 26.221198-59.021232 46.211485-95.024214 56.549947-5.613858 1.611707-7.314593 3.719718-7.186679 9.31311 0.301875 13.304004-0.045025 26.622334-0.128937 39.934524C412.398538 955.484533 411.819346 955.484533 411.239132 955.484533z" fill="#F6A623" /><path d="M425.146886 65.444525c27.214828 5.949502 52.125171 17.008372 74.569346 33.568537 45.674249 33.700543 78.689177 77.165474 99.902314 129.685641 0.904603 2.238994 1.394766 5.247514 0.678452 7.440459-4.030803 12.33391-8.490372 24.527626-12.925381 37.115316-11.378142-3.932566-22.912849-7.554046-34.096563-12.050454-2.656503-1.068332-4.754281-4.792143-6.061043-7.755638-12.075013-27.389814-25.873274-53.769624-45.193295-76.849272-15.662725-18.712177-33.261545-35.8413-58.259892-39.795355-14.619976-2.311649-25.438369-9.722432-36.970006-17.20894-15.501042-10.064216-31.246655-19.751856-47.290049-29.854958 11.532661-13.967106 26.65815-20.239973 43.047422-24.296359C410.080749 65.444525 417.613306 65.444525 425.146886 65.444525z" fill="#F6A623" /><path d="M600.9908 716.66431c-6.045693 28.797883-18.556635 54.332443-35.057447 78.020958-1.213641 1.741667-4.988618 2.762927-7.371898 2.472308-109.00053-13.313214-203.079208-55.700603-274.53975-141.715629-1.964748-2.364861-3.683902-6.378268-3.14155-9.159614 5.640464-28.92375 11.756765-57.755402 17.808598-86.599334 0.218988-1.041726 1.131777-1.937119 1.973958-3.312442C375.954511 655.921877 479.94391 701.073216 600.9908 716.66431z" fill="#F6A623" /></svg>